<?xml version="1.0" encoding="UTF-8" standalone="no"?>
<svg
   xmlns:dc="http://purl.org/dc/elements/1.1/"
   xmlns:cc="http://creativecommons.org/ns#"
   xmlns:rdf="http://www.w3.org/1999/02/22-rdf-syntax-ns#"
   xmlns:svg="http://www.w3.org/2000/svg"
   xmlns="http://www.w3.org/2000/svg"
   xmlns:sodipodi="http://sodipodi.sourceforge.net/DTD/sodipodi-0.dtd"
   xmlns:inkscape="http://www.inkscape.org/namespaces/inkscape"
   id="Layer_1"
   data-name="Layer 1"
   width="32"
   height="32"
   viewBox="0 0 32 32"
   version="1.1"
   sodipodi:docname="Handshake.svg"
   inkscape:version="0.92.3 (2405546, 2018-03-11)"
   inkscape:export-filename="/home/ethan/Documents/CS/mine/web/images/social/Handshake.png"
   inkscape:export-xdpi="96"
   inkscape:export-ydpi="96">
  <metadata
     id="metadata13">
    <rdf:RDF>
      <cc:Work
         rdf:about="">
        <dc:format>image/svg+xml</dc:format>
        <dc:type
           rdf:resource="http://purl.org/dc/dcmitype/StillImage" />
        <dc:title>logo-icon</dc:title>
      </cc:Work>
    </rdf:RDF>
  </metadata>
  <sodipodi:namedview
     pagecolor="#ffffff"
     bordercolor="#666666"
     borderopacity="1"
     objecttolerance="10"
     gridtolerance="10"
     guidetolerance="10"
     inkscape:pageopacity="0"
     inkscape:pageshadow="2"
     inkscape:window-width="1320"
     inkscape:window-height="818"
     id="namedview11"
     showgrid="false"
     inkscape:zoom="10.680141"
     inkscape:cx="9.8912856"
     inkscape:cy="21.079259"
     inkscape:window-x="0"
     inkscape:window-y="0"
     inkscape:window-maximized="0"
     inkscape:current-layer="Layer_1" />
  <defs
     id="defs4">
    <style
       id="style2">.cls-1{fill:#ffffff;}</style>
  </defs>
  <title
     id="title6">logo-icon</title>
  <rect
     style="fill:#0077b5;fill-opacity:1;stroke:none;stroke-width:1.38587558;stroke-linejoin:round;stroke-miterlimit:4;stroke-dasharray:none;stroke-opacity:1"
     id="rect885"
     width="32"
     height="32"
     x="0"
     y="0"
     rx="4"
     ry="4"
     inkscape:export-xdpi="96"
     inkscape:export-ydpi="96" />
  <path
     class="cls-1"
     d="m 5.3499161,19.70999 h -0.00795 v 0.48624 c 0,1.97575 -0.00646,3.95101 -0.00348,5.92676 0,0.98191 0.702291,1.81284 1.6767576,1.85357 1.354915,0.0576 2.7147966,0.0224 4.0726913,0.0224 0.988373,0 1.849599,-0.89401 1.822779,-2.02145 -0.03079,-1.26452 0.01788,-2.53003 0.0293,-3.79555 q 0.02285,-2.57971 0.04619,-5.1609 c 0.0035,-0.31489 0.04967,-0.37498 0.34767,-0.45495 a 4.3945342,4.3945338 0 0 1 2.086013,-0.07 c 1.272965,0.27118 2.203227,1.25211 2.339811,2.54444 0.06755,0.64219 0.07202,1.29134 0.08145,1.94049 0.02484,1.69663 0.03824,3.39424 0.05513,5.09236 0.01142,1.12545 0.823976,1.94297 1.948931,1.94843 q 1.816819,0.008 3.635624,0.005 c 1.144822,0 1.962342,-0.80361 1.964823,-1.94843 q 0.01092,-5.23242 0.0089,-10.46434 c 0,-0.0541 0,-0.10827 -0.0045,-0.16141 -0.03179,-0.36705 -0.175323,-0.68094 -0.496669,-0.86719 a 2.7858209,2.7858206 0 0 0 -0.719176,-0.30099 7.7480487,7.7480479 0 0 0 -2.988959,-0.12664 c -0.768845,0.11721 -1.527755,0.30346 -2.291139,0.45842 -1.003767,0.20215 -2.013993,0.28757 -3.03614,0.18377 C 14.599812,14.66741 13.460451,14.11064 12.391121,13.3711 11.884022,13.01995 11.370465,12.67576 10.843995,12.35392 10.202794,11.96105 9.4846095,11.83143 8.7430816,11.78921 7.94841,11.74551 7.1537384,11.72511 6.37049,11.90593 5.7595861,12.04549 5.4402274,12.40259 5.3701972,13.01995 a 3.5705593,3.5705589 0 0 0 -0.021355,0.39287 q 0.0015,3.14789 0.00101,6.29678 z m 3.7801534,-8.91025 a 3.8025042,3.8025038 0 1 0 -3.791577,-3.80748 3.8039939,3.8039935 0 0 0 3.791577,3.80748 z M 25.360245,8.95212 a 3.8034972,3.8034968 0 1 0 -3.809954,3.79258 3.8069739,3.8069735 0 0 0 3.809954,-3.79258 z"
     id="path8"
     style="fill:#ffffff;stroke-width:0.04966698"
     inkscape:connector-curvature="0" />
</svg>
